<?xml version="1.0" encoding="utf-8"?>
<!-- Generator: Adobe Illustrator 25.4.1, SVG Export Plug-In . SVG Version: 6.00 Build 0)  -->
<svg version="1.1" id="Layer_1" xmlns="http://www.w3.org/2000/svg" xmlns:xlink="http://www.w3.org/1999/xlink" x="0px" y="0px"
	 viewBox="0 0 1294.6 353.2" style="enable-background:new 0 0 1294.6 353.2;" xml:space="preserve">
<style type="text/css">
	.st0{fill:#E4E2E2;}
	.st1{fill:#E35D93;}
</style>
<path class="st0" d="M270.4,184.5c0,0-1.2-0.1-1,0.5c0.2,0.6,75,142.6,76.8,143.1c1.8,0.5,5.6,0,5.6,0l-4.1-10.3l-75.4-135.1
	L270.4,184.5z"/>
<g id="MJzg6s_00000062885719197995901640000004547198559098016177_">
	<g>
		<path class="st1" d="M555,231.8c-4.9-16-12.4-30.4-24.5-42.2c-4.7-4.6-10.3-7.9-15.5-11.7c-14.6-7.3-30-8.2-45.7-4.6
			c-16.1,3.8-29.5,12.1-40.8,24.1c-8.3,9.5-16.2,28.5-17.4,36.1c-2.5,16.6-0.7,32.3,6.3,47.5c3.8,6,7.3,12.2,12.2,17.5
			c11,12,24.4,19.9,40.2,23.4c22,4.9,42.3,1.4,60.4-12.7c1.4-1.1,2.3-2.8,3.8-3.6c2.9-1.6,2.4-2.9,0.5-5c-4.8-5.5-9.4-11.2-14-16.8
			c-1.8-0.7-2.1-5.2-5.7-1.8c-12.8,11.7-27.7,12.4-43.4,7.8c-7.8-2.4-14-7-19.1-13.2c-2.2-2.7,1.1-2.8,2.3-3.3
			c11.4-4.3,23-8.5,34.4-12.7c21-7.7,42-15.6,63.1-23.1C555.4,236.1,555.9,234.8,555,231.8z M513.9,217.4c-0.5,1.2-2.4,1.5-4,1.5
			c-19.6,7.5-39.2,15-59,21.8c-2.4,1.5-5.1,2.2-8.3,2.9c0.8-13.8,6.5-24.6,17.5-32.4c13-9.3,35.9-14.2,51.4,2.8
			C512.5,215,514.5,215.9,513.9,217.4z"/>
		<path class="st1" d="M134,281.5c-8.2-17.6-10.3-35.7-5-54.5c12.8-45.1,63.9-68.5,107.2-49.1c1.4,0.6,2.7,1.2,4.1,1.7
			c7.6,5.1,15.4,9.9,21.7,16.7c26.9,28.8,26.3,75.2-1.2,103.7c-31.7,32.8-86.9,31.9-116.6-3.5C140.3,291.8,137.3,286.6,134,281.5z
			 M242.7,227c-0.2-0.6-0.3-1.2-0.6-1.7c-10.3-16.3-25.1-24.3-44.2-22.2c-18.5,2.1-31.2,12.9-36.9,30.5c-5.8,17.8-1.6,34,12.1,47.1
			c3.2,3,6.2,6.8,11.1,7.2c17.1,8.5,38.4,4.3,52.1-10.2C249,264.3,251.7,243,242.7,227z"/>
		<path class="st1" d="M1074.1,285.3c-2.2-4.7-4.3-9.5-6.5-14.2c-0.1-0.9-0.1-1.8-0.4-2.6c-3.5-12.8-3.6-25.6-1.1-38.5
			c9.6-36,39.7-59,76.2-58.4c11.2,0.2,21.5,4.1,31.7,8.1c11.2,6.8,21.6,14.5,27.8,26.6c-1.3-4.5,0.2-9.1-1.4-13.4
			c0-52.8,0.1-105.6-0.1-158.3c0-4.2,1.2-5.5,5.2-5.1c2.7,0.3,5.4,0.1,8.1,0.1c1.3,0,2.8-0.2,3,1.8c-0.1,1.2-0.1,2.4-0.1,3.6
			c0,92.6,0,185.2,0,277.8c0,3.6,1.5,8-0.6,10.4c-2.2,2.6-6.8,0.5-10.3,0.9c-0.6,0.1-1.2,0.1-1.8,0.2c-2.3-0.2-1.7-2-1.7-3.4
			c-0.1-4.3-0.1-8.6-0.1-12.9c0-6.5,0-13,0-20.4c-2.4,4.5-4.5,8.3-7.3,11.5c-19.4,22-51.5,29.7-80.5,19.2
			C1097,311.9,1083.7,300.8,1074.1,285.3z M1111.4,299c0.7,1,1.7,1.5,2.9,1.6c6.9,4.4,14.7,5.4,22.7,5.8
			c37.6,2.2,67.2-28.6,63.3-66.1c-0.8-7.6-2.5-15-7.2-21.4c0.3-1.3-0.5-2.3-1.1-3.3c-14-22.8-41.9-33.7-67.6-26.5
			c-42.7,12-58,65.1-28.2,98C1100.4,292.1,1104.8,297.1,1111.4,299L1111.4,299z"/>
		<path class="st1" d="M72.7,324.1c-1.5-1.3-0.8-3.1-0.8-4.6c0-95,0-189.9-0.1-284.9c0-3.9,0.9-5.1,4.9-5c7.8,0.3,15.6,0.1,23.3,0.1
			c1.4,0,3-0.5,4.3,0.7c0,44.3,0,88.5,0,132.8c0,52,0,104.1,0.1,156.1c0,3.7-0.9,4.9-4.7,4.8C90.7,323.8,81.7,324.1,72.7,324.1z"/>
		<path class="st1" d="M906.8,314.4c0-44.9,0-89.7,0-134.6c0-1,0.1-2.1,0.1-3.1c-0.2-1.6-1.3-1.8-2.6-1.7c-2.4,0-4.8,0.2-7.2,0
			c-2.8-0.2-3.9,0.5-4,3.6c0,5.4-0.6,10.7-1,16.1c0.2,4,0.2,8-0.9,12.8c-4.7-9.3-11.3-16.1-19-21.9c-4.9-3.6-10.4-5.9-15.8-8.6
			c-1.3-0.4-2.5-0.7-3.8-1.1c-14.1-4.9-28.4-5.2-42.6-1c-28.7,8.6-46.6,27.8-54.3,56.7c-2.7,13.4-1.7,26.6,2,39.6
			c1.5,3.5,3,7.1,4.5,10.6c9.4,17.1,23.2,29.3,41.5,36.2c26.2,9.7,60,5,80-17.7c3-3.5,5.6-7.2,7.7-11.6c0,6.8,0,13.1,0,19.4
			c0,4.2,0.1,8.5,0.2,12.7c0,1.4-0.5,3.1,1.5,3.6c3.1-0.1,6.3-0.4,9.4-0.1c3.5,0.3,4.5-1.1,4.2-4.4
			C906.6,318,906.8,316.2,906.8,314.4z M861,298.5c-17.9,10.2-36.6,11-55.5,2.9c-5.9-1.5-10.8-5-14.9-9
			c-12.9-12.6-20.8-27.9-19.9-46.3c1.1-23.9,11.9-42.7,34.1-52.8c22.5-10.2,44.3-7.6,63.9,7.9c5.9,4.7,11.1,10.4,14.1,17.6l0,0
			c1,0.7,1.6,1.6,1.5,2.9C898.3,247.7,887.6,283.4,861,298.5z"/>
		<path class="st1" d="M430.4,173.1c-0.4-0.7-1.2-0.9-1.9-0.9c-9.3,0-18.5,0-27.8-0.1c-2.1,0-2.8,1.3-3.6,2.7
			c-3,5.5-6.1,11-9.1,16.5c-12.3,22.3-24.7,44.7-37,67c-0.9,2-1.3,5-3.5,5.2c-1.8,0.2-2.3-2.8-3.2-4.4c-7.1-12.6-14-25.2-21-37.8
			c-7.6-13.7-15.1-27.3-22.7-41c-1.1-2.1-2.1-4.3-3.1-6.4c-0.6-0.9-1.1-1.8-2.4-1.8c-9.5,0-19,0-28.5,0c-2,0-1.8,1-1.1,2.3
			c1.7,3.3,3.3,6.6,5,9.9c2.7,3.7,41.3,75.5,44.7,81.7c3.8,6.9,11.6,21.9,11.9,22.4c4.2,6.4,19.4,34.6,19.7,36.2c2,0,2.2-1.8,2.8-3
			c25.9-47.6,51.8-95.2,77.7-142.9C428.3,177,428.8,174.8,430.4,173.1z"/>
		<path class="st1" d="M931.8,324.3c-2.3-0.3-1.7-2-1.7-3.4c0-47.8,0-95.6-0.1-143.3c0-2.5,0.7-3.5,3.3-3.3c2.8,0.2,5.7,0.1,8.5,0
			c1.4,0,2.7,0,3.3,1.6c-0.6,11.4-0.6,22.7,0.7,34.1c1.8-4.5,5.7-7.7,6.9-12.4c1.5-1.4,3.1-2.8,4.5-4.3
			c18.7-19.2,41.3-25.6,67.4-20.2c3.7,0.8,7,2.5,10.4,4.1c7.3,5,13.4,11.1,17,19.5c2.8,6.6,4,13.3,4,20.4
			c-0.1,33.9-0.1,67.8,0.1,101.6c0,4.2-0.8,6-5.3,5.5c-3.4-0.4-6.8,0-10.3,0.1c-1.6-1.5-0.8-3.4-0.8-5.1c-0.1-32.5-0.1-65,0-97.6
			c0-4.4-0.7-8.6-2.3-12.6c-3.8-10.8-11.1-17.8-22.3-20.5c-7.4-1.7-14.8-1.5-22.2,0c-25.6,5.5-47.4,25.5-46.5,55.7
			c0.7,24.6,0.2,49.3,0.1,73.9c0,6.6,0.8,5.8-6.1,5.9C937.5,324.1,934.7,324.2,931.8,324.3z"/>
		<path class="st1" d="M628.1,310.3c-4.4-4.7-4.4-4.7-0.1-9.7c5.6-6.5,5.5-6.3,12.8-1.9c12.5,7.6,25.9,11.6,40.6,7.1
			c14.5-4.4,22.3-17.8,19-31.5c-0.1-0.5-0.6-1-0.8-1.5c-0.2-6.2-4.8-9.4-9.1-12.5c-6.5-4.7-14.2-6.8-21.8-9
			c-13.6-3.9-26.7-8.7-35.5-20.8c-13.4-30.2,8.1-61.2,41.1-59.1c8.5,0.5,16.6,2.9,24.3,6.3c3.7,2.6,7.3,5.3,11,7.9
			c1.7,1.3,2.7,2.6,0.8,4.7c-2.3,2.5-4.5,5.2-6.6,7.9c-1.3,1.6-2.2,0.8-3.2-0.2c-4.9-4.6-10.9-7.3-17.3-9c-8.9-2.4-17.7-2.4-26.1,2
			c-12.7,6.8-15.7,25.1-5.5,34.2c5.3,4.7,11.4,8.1,18.3,9.9c8.5,3.7,17.6,5.7,25.9,9.9c2.7,1.8,5.6,3.5,8.1,5.5
			c5.6,4.4,10.2,9.6,12.3,16.7c6.9,23.1-7.7,49.5-31.3,54.9C664.4,326.8,645.2,323.1,628.1,310.3z"/>
		<path class="st1" d="M729.9,326.7c-0.1-1.5-0.2-3-0.2-4.5c0-95.6,0-191.2,0-286.8c0-6.8-0.8-5.9,6-5.8c3.4,0,6.8-1,10.1,0.8
			c-0.1,1.5-0.4,3-0.4,4.4c0,95.4,0,190.7,0,286.1c0,0.7-0.1,1.5,0,2.2c0.3,2.7-0.7,3.8-3.5,3.6C738,326.6,734,326.7,729.9,326.7z"
			/>
		<path class="st1" d="M597,324.9c-2.9-0.5-1.6-2.9-1.6-4.3c-0.1-29.1-0.1-58.2-0.1-87.3c0-19.2,0.1-38.5-0.1-57.7
			c0-3.2,0.7-4.8,4.2-4.3c4,0.6,8.3-1.1,12.2,0.9c-0.1,1.6-0.2,3.3-0.2,4.9c0,47.4,0,94.8,0.1,142.2c0,4.1-1.2,5.1-5,4.9
			C603.4,324.1,600.1,323.1,597,324.9z"/>
		<path class="st0" d="M752.4,47.3c0-1.6,0.1-3.3,0.4-4.9c1.2-6-1.1-10.1-6.9-12.1c-0.1,1.5-0.4,3-0.4,4.4c0,95.4,0,190.7,0,286.1
			c0,0.7-0.1,1.5,0,2.2c0.3,2.7-0.7,3.8-3.5,3.6c-4-0.2-8.1-0.1-12.1-0.1c3.1,7.2,10.4,9.6,17.8,6c4.1-2,5.9-5.7,5.3-9.5
			c-1.3-9.2-0.5-18.4-0.6-27.6C752.3,288.6,752.4,104.7,752.4,47.3z"/>
		<path class="st0" d="M72.7,324.1c9,0,17.9-0.3,26.9,0c3.8,0.1,4.7-1.1,4.7-4.8c-0.1-52-0.1-104.1-0.1-156.1c0-44.3,0-88.5,0-132.8
			c5.8,2.8,7.3,5.7,6.3,12c-0.2,1.3-0.1,2.7-0.1,4c0,89.3,0,178.7-0.1,268c0,2.6,0.5,17-8.8,16.4c-7.2,0.6-14.6,1-21.8-0.4
			C76,329.8,73.6,327.9,72.7,324.1z"/>
		<path class="st0" d="M1203.9,324.3c0.6-0.1,1.2-0.1,1.8-0.2c3.5-0.4,8.1,1.7,10.3-0.9c2.1-2.4,0.6-6.9,0.6-10.4
			c0-92.6,0-185.2,0-277.8c0-1.2,0.1-2.4,0.1-3.6c4.7,0.8,5.3,4.6,6.1,8.3c0.2,0.9,0,1.8,0,2.7c0,92,0,184.1,0,276.1
			c0,10-5.9,14.4-14.7,11C1205.7,328.5,1204,327,1203.9,324.3z"/>
		<path class="st0" d="M134,281.5c3.3,5.1,6.3,10.3,10.3,15c29.6,35.4,84.9,36.3,116.6,3.5c27.5-28.5,28.1-74.9,1.2-103.7
			c-6.3-6.8-14.1-11.6-21.7-16.7c7.9,0.3,13.3,5.7,19,10.1c16.1,12.5,25.3,29.3,28.8,49.2c2.6,14.8,0.3,29-5.6,42.8
			c-7.1,16.5-18.5,29.2-33.9,38.1c-10.3,6-21.6,9.5-33.7,10.7c-14.2,1.4-27.5-1.2-40.4-6.6c-9-3.7-16.7-9.4-23.7-16.3
			c-5.1-5.1-9.5-10.6-13.5-16.5C135.4,288.1,133.8,285.1,134,281.5z"/>
		<path class="st0" d="M931.8,324.3c2.8,0,5.7-0.1,8.5-0.1c6.9-0.1,6.1,0.7,6.1-5.9c0-24.6,0.6-49.3-0.1-73.9
			c-0.9-30.3,20.9-50.2,46.5-55.7c7.4-1.6,14.8-1.8,22.2,0c11.2,2.6,18.6,9.6,22.3,20.5c-1.8,0.2-2.6-1-3.4-2.3
			c-5.5-8.4-13.7-11.3-23.2-12c-16.4-1.2-30.4,5.1-42.3,15.5c-7.8,6.8-12.7,15.9-14.2,26.6c-0.7,5.4-0.8,10.7-0.8,16
			c0,22.3,0,44.5,0,66.8c0,4.3-1,8.2-4.9,10.3c-4.7,2.4-9.6,1.8-14.2-0.6C932.6,328.2,932.1,326.2,931.8,324.3z"/>
		<path class="st0" d="M430.4,173.1c-1.6,1.6-2.2,3.9-3.2,5.8c-25.9,47.6-51.8,95.3-77.7,142.9c-0.7,1.2-0.8,3-2.9,3
			c0,1,0.3,1.7,1.1,2.3c3.2,2.4,6.9,1.5,9.6-3.2c7.1-12.4,13.8-25.1,20.7-37.6c9.3-17,54-99.6,54.9-101.2
			C436,180.2,435.2,176.1,430.4,173.1z"/>
		<path class="st0" d="M471.5,289.6c-7.8-2.4-14-7-19.1-13.2c-2.2-2.7,1.1-2.8,2.3-3.3c11.4-4.3,23-8.5,34.4-12.7
			c21-7.7,42-15.6,63.1-23.1c3.2-1.1,3.7-2.4,2.7-5.5c-4.9-16-12.4-30.4-24.5-42.2c-4.7-4.6-10.3-7.9-15.5-11.7
			c3.3-0.5,5.8,1.5,8.2,3c19.6,12.3,31.1,30.4,37.6,52.1c1.5,4.9-0.9,9.3-5.7,11.2c-7.6,3-15.2,6-22.9,8.9c-19,7.1-38,14.1-57,21
			c-2.8,1-5.7,1.8-8.3,3.3c-1.5,0.9-3.6,1.2-3.6,3.5c0,2.3,1.7,3.4,3.3,4.4C468.6,286.5,470.9,287.1,471.5,289.6z"/>
		<path class="st0" d="M1062.9,222.6c0-0.1,0.1-8.5-0.7-12.6c-2.7-13.9-10-24.7-22.1-32c-1.3-0.8-2.9-3.2-5-0.8
			c7.3,5,13.4,11.1,17,19.5c2.8,6.6,4,13.3,4,20.4c-0.1,33.9-0.1,67.8,0.1,101.6c0,4.2-0.8,6-5.3,5.5c-3.4-0.4-6.8,0-10.3,0.1
			c0.1,1.2,0.5,2.3,1.3,3.2c3,3.5,10.1,5.1,14.9,3.2c4.1-1.6,6.3-5.3,6.3-10.8C1063,306.9,1062.3,230.4,1062.9,222.6z"/>
		<path class="st0" d="M597,324.9c3.1-1.8,6.4-0.8,9.6-0.7c3.8,0.1,5.1-0.8,5-4.9c-0.2-47.4-0.1-94.8-0.1-142.2
			c0-1.6,0.1-3.3,0.2-4.9c5.1,1.5,6.9,5.3,6.9,10.2c0,46,0,92,0,138c0,5.6-3.3,9.7-8.3,10.7C604.3,332.3,599,329.8,597,324.9z"/>
		<path class="st0" d="M628.1,310.3c17.1,12.8,36.3,16.5,56.8,11.8c23.5-5.4,38.2-31.7,31.3-54.9c-2.1-7-6.7-12.3-12.3-16.7
			c-2.6-2-5.4-3.7-8.1-5.5c5-0.4,8.5,2.7,12,5.3c11.7,8.8,17.9,20.4,16.8,35.3c-0.7,9.9-4,18.8-10.3,26.6
			c-10.8,13.4-25.1,19.4-42,18.7c-14.1-0.6-27.7-3.7-39.3-12.5c-1.8-1.3-3.4-2.9-4.8-4.6C627.3,313,625.9,311.5,628.1,310.3z"/>
		<path class="st0" d="M893.2,324.3c3.1-0.1,6.3-0.4,9.4-0.1c3.5,0.3,4.5-1.1,4.2-4.4c-0.2-1.8,0-3.6,0-5.4c0-44.9,0-89.7,0-134.6
			c0-1,0.1-2.1,0.1-3.1c5.1,0.6,6,4.4,6.1,8.4c0.2,7,0.1,14,0.1,21.1c0,37.8-0.1,75.6,0,113.4c0,11.1-7.6,11.8-15.3,10.1
			C895.4,329.1,893.4,327.2,893.2,324.3z"/>
		<path class="st0" d="M1074.1,285.3c9.6,15.5,22.9,26.7,40.1,32.9c29,10.6,61.1,2.8,80.5-19.2c2.9-3.2,4.9-7,7.3-11.5
			c0,7.4,0,13.9,0,20.4c-4.6-1.2-6.8,2.6-9.5,4.8c-13.2,10.7-28.1,16-45.1,16.8c-22.3,1-41.2-6.8-57.7-20.8
			c-6.5-5.5-11.4-12.5-15.5-20C1073.6,287.7,1072.2,286.4,1074.1,285.3z"/>
		<path class="st0" d="M417.5,280.9c3.8,6,7.3,12.2,12.2,17.5c11,12,24.4,19.9,40.2,23.4c22,4.9,42.3,1.4,60.4-12.7
			c1.4-1.1,8.3-4.5,4.4-8.6c-4.8-5.5-9.4-11.2-14-16.8c2.9-0.5,5.2,0.6,7.1,2.9c4,4.8,8.4,9.3,11.8,14.5c3.1,4.7,2.9,8.8-1.5,12.3
			c-11.5,9.5-24.3,15.6-39.5,17.1c-14,1.4-27.3-0.9-40-6.4c-14.8-6.5-26.9-16.3-35.5-30.2c-2.1-3.4-4.8-6.5-5.8-10.5
			C417.1,282.4,416.6,281.6,417.5,280.9z"/>
		<path class="st0" d="M762.3,281.8c9.4,17.1,23.2,29.3,41.5,36.2c26.2,9.7,60,5,80-17.7c3-3.5,5.6-7.2,7.7-11.6
			c0,6.8,0,13.1,0,19.4c-1.9-0.3-3.4,0.2-4.9,1.6c-12.1,10.7-25.9,18.1-42.1,19.7c-21,2.1-40.5-2.3-57.8-15.1
			c-10.3-7.6-18.1-17.1-23.9-28.4C762.3,284.5,760.6,283.3,762.3,281.8z"/>
		<path class="st0" d="M669.9,235.2c-6.9-1.8-13-5.2-18.3-9.9c-10.1-9-7.2-27.4,5.5-34.2c8.3-4.5,17.2-4.4,26.1-2
			c6.4,1.7,12.4,4.4,17.3,9c1.1,1,2,1.8,3.2,0.2c2.1-2.7,4.3-5.4,6.6-7.9c1.9-2.1,0.9-3.4-0.8-4.7c-3.6-2.7-7.3-5.3-11-7.9
			c0.1-0.1,0.2-0.3,0.3-0.3c6.3-0.8,17.8,9,17.7,15.1c-0.1,5-3.4,8.1-7.1,10.6c-3.6,2.5-7,0.9-10.3-1.1c-9.3-5.6-19.1-9-30.2-6.3
			c-8.2,2-14.4,7.7-15.2,13.9c-1.4,11,1.3,16.4,10.7,21.6C666.3,232.2,669.1,232.3,669.9,235.2z"/>
		<path class="st1" d="M592.6,131.9c-3.9-10.4,0-18.5,9.5-20.1c3.6-0.6,6.2,1.5,9.3,2.3c0.6,0.7,1.2,1.3,1.8,2
			c3.9,4.4,4.7,9.8,2,14.8c-2.5,4.6-7.7,7.1-13.1,6.6C598,136.9,595.4,134.2,592.6,131.9z"/>
		<path class="st0" d="M351,258.4c-0.9,2-1.3,5-3.5,5.2c-1.8,0.2-2.3-2.8-3.2-4.4c-7.1-12.6-14-25.2-21-37.8
			c-7.6-13.7-15.1-27.3-22.7-41c-1.1-2.1-2.1-4.3-3.1-6.4c4.1-0.2,6.2,2.8,7.9,5.7c9.9,17.7,19.5,35.5,29.4,53.1
			c4.3,7.7,8.1,15.6,13.1,22.9C348.6,256.9,349,258.6,351,258.4z"/>
		<path class="st0" d="M633,230.5c8.8,12.1,21.9,16.9,35.5,20.8c7.6,2.2,15.3,4.4,21.8,9c4.3,3.1,9,6.2,9.1,12.5
			c-3.5-0.5-4.3-4.2-7-5.8c-9.8-6.1-21-8.3-31.6-12.2c-10.1-3.7-19.2-8.8-25.7-17.8C633.8,235,632.7,233,633,230.5z"/>
		<path class="st0" d="M592.6,131.9c2.8,2.4,5.4,5.1,9.4,5.5c5.4,0.5,10.6-2,13.1-6.6c2.7-5,2-10.4-2-14.8c-0.6-0.7-1.2-1.3-1.8-2
			c8.7,0.6,14.5,10.9,10.6,19.8c-2.3,5.4-6.4,9.2-12.7,9.8c-7.1,0.6-12.3-2.1-15.8-8.3C592.8,134.2,592.5,133.1,592.6,131.9z"/>
		<path class="st0" d="M952.7,197.6c-1.2,4.7-5.1,7.9-6.9,12.4c-1.3-11.4-1.3-22.8-0.7-34.1c6.5,2,6.1,7.6,6.5,12.6
			C951.9,191.5,951.5,194.6,952.7,197.6z"/>
		<path class="st0" d="M892.2,194.7c0.2,4,0.2,8-0.9,12.8c-4.7-9.3-11.3-16.1-19-21.9c-4.9-3.6-10.4-5.9-15.8-8.6
			c2.1-2,3.9,0,5.7,0.6c9.1,3.2,16.8,8.9,24,15.2C888,194.3,889.8,195.1,892.2,194.7z"/>
		<path class="st0" d="M1200.5,192.9c1.6,4.3,0.1,8.9,1.4,13.4c-6.2-12.2-16.6-19.8-27.8-26.6c6.7,0.6,11.4,4.9,16.6,8.5
			C1193.7,190.1,1195.8,194.1,1200.5,192.9z"/>
		<path class="st0" d="M509.9,218.9c0.4-2.8-1.5-4.1-3.4-5.2C496,207,485,207.9,474,212c-10.7,4-18.3,11.4-22.6,22
			c-0.8,2.1-2,4.4-0.5,6.8c-2.4,1.5-5.1,2.2-8.3,2.9c0.8-13.8,6.5-24.6,17.5-32.4c13-9.3,35.9-14.2,51.4,2.8c1,1.1,3,1.9,2.3,3.4
			C513.4,218.6,511.4,218.9,509.9,218.9z"/>
		<path class="st0" d="M242.7,227c-1.6,0.1-2.2-1-3.1-2.1c-11.7-14-30.1-20.1-48.4-12.8c-15.4,6.1-25.7,21.5-26,37.9
			c-0.2,15,5.7,26.5,17.3,35.4c0.9,0.7,1.6,1.4,1.7,2.5c-5-0.4-8-4.2-11.1-7.2c-13.7-13.1-17.9-29.2-12.1-47.1
			c5.7-17.5,18.4-28.4,36.9-30.5c19.1-2.2,34,5.9,44.2,22.2C242.3,225.9,242.5,226.5,242.7,227z"/>
		<path class="st0" d="M1193,219.1c-2.4-0.2-2.9-2.5-4-3.9c-8.4-10.9-19.6-17.6-32.8-20.1c-19.9-3.8-37.9,0.5-52.6,15.2
			c-16,16-20.7,41-12.2,62.1c3.9,9.6,10.3,17,17.9,23.6c1.1,0.9,2.3,1.5,2,3.1c-6.6-2-10.9-7-15.2-11.8c-29.8-32.9-14.5-86,28.2-98
			c25.7-7.2,53.6,3.7,67.6,26.5C1192.5,216.8,1193.4,217.7,1193,219.1z"/>
		<path class="st0" d="M882.8,218.8c-2.4,0.2-2.9-2-3.9-3.2c-14.7-17.7-33.6-24.8-56.1-20.4c-24.8,4.8-42,22.8-45,47.6
			c-2.9,23.4,5.4,42.6,25.5,56c1.1,0.7,2,1.3,2.2,2.6c-5.9-1.5-10.8-5-14.9-9c-12.9-12.6-20.8-27.9-19.9-46.3
			c1.1-23.9,11.9-42.7,34.1-52.8c22.5-10.2,44.3-7.6,63.9,7.9C874.6,205.9,879.8,211.6,882.8,218.8z"/>
	</g>
</g>
</svg>
